<svg xmlns="http://www.w3.org/2000/svg" viewBox="0 0 99.73 47.33"><defs><style>.a{fill:none;}</style></defs><title>Asset 1</title><path d="M3.16,9.23a.6.6,0,0,0,.14.39H2.17a.6.6,0,0,0,.14-.39V2.38H1a.85.85,0,0,0-.3.05.52.52,0,0,0-.22.18v-1H5v1a.52.52,0,0,0-.22-.18.85.85,0,0,0-.3-.05H3.16Z" transform="translate(0 -1.19)"/><path d="M10.65,5.14V2a.65.65,0,0,0-.13-.39h1.12A.6.6,0,0,0,11.5,2V9.23a.6.6,0,0,0,.14.39H10.52a.65.65,0,0,0,.13-.39V5.9H6.7V9.23a.6.6,0,0,0,.14.39H5.72a.59.59,0,0,0,.13-.39V2a.59.59,0,0,0-.13-.39H6.84A.6.6,0,0,0,6.7,2V5.14Z" transform="translate(0 -1.19)"/><path d="M13.21,9.62a.6.6,0,0,0,.14-.39V2a.6.6,0,0,0-.14-.39h4.45v.84a2.29,2.29,0,0,0-.6-.08H14.2V5.23H16a2.6,2.6,0,0,0,.4,0,.8.8,0,0,0,.35-.11v1A1,1,0,0,0,16.4,6L16,6H14.2V8.86h2.86a2.29,2.29,0,0,0,.6-.08v.84Z" transform="translate(0 -1.19)"/><path d="M27.2,5.14V2a.6.6,0,0,0-.14-.39h1.13a.6.6,0,0,0-.14.39V9.23a.6.6,0,0,0,.14.39H27.06a.6.6,0,0,0,.14-.39V5.9H23.25V9.23a.6.6,0,0,0,.14.39H22.26a.6.6,0,0,0,.14-.39V2a.6.6,0,0,0-.14-.39h1.13a.6.6,0,0,0-.14.39V5.14Z" transform="translate(0 -1.19)"/><path d="M31,7.43l-.72,1.74-.07.18,0,.09a.13.13,0,0,0,0,.1l0,.08H29a.52.52,0,0,0,.21-.23l3.39-8h0l3.57,7.74a2.62,2.62,0,0,0,.14.26,1.1,1.1,0,0,0,.14.18H35.17l0-.08a.18.18,0,0,0,0-.1.42.42,0,0,0,0-.09l-.08-.18-.71-1.74Zm3.12-.76L32.64,3.26h0l-1.4,3.41Z" transform="translate(0 -1.19)"/><path d="M40.37,2.72a2.75,2.75,0,0,0-.62-.37A1.79,1.79,0,0,0,39,2.2a1.06,1.06,0,0,0-1.12,1.12.71.71,0,0,0,.24.54,3.9,3.9,0,0,0,.6.45l.78.44a5.21,5.21,0,0,1,.77.56,2.62,2.62,0,0,1,.6.78,2.32,2.32,0,0,1,.25,1.1,2.51,2.51,0,0,1-.21,1,2.39,2.39,0,0,1-.56.83,2.77,2.77,0,0,1-.85.55,3,3,0,0,1-1.09.19,1.55,1.55,0,0,1-.31,0l-.31-.07-.32-.07a1.63,1.63,0,0,0-.31,0,.34.34,0,0,0-.17.05.91.91,0,0,0-.16.11V8.32a2.41,2.41,0,0,0,.65.46,1.85,1.85,0,0,0,.78.17,2.45,2.45,0,0,0,.78-.12,1.77,1.77,0,0,0,.64-.33A1.41,1.41,0,0,0,40.13,8a1.68,1.68,0,0,0,.16-.77,1.5,1.5,0,0,0-.24-.88,2.14,2.14,0,0,0-.6-.6,6,6,0,0,0-.78-.47,6.47,6.47,0,0,1-.77-.45,2.41,2.41,0,0,1-.6-.59,1.42,1.42,0,0,1-.25-.87,2.27,2.27,0,0,1,.13-.75,1.84,1.84,0,0,1,.37-.6,2,2,0,0,1,.57-.4,2,2,0,0,1,.75-.14l.33,0,.36.05.33.06a.73.73,0,0,0,.21,0,.42.42,0,0,0,.27-.09Z" transform="translate(0 -1.19)"/><path d="M47.18,5.14V2a.59.59,0,0,0-.13-.39h1.12A.59.59,0,0,0,48,2V9.23a.59.59,0,0,0,.13.39H47.05a.59.59,0,0,0,.13-.39V5.9H43.24V9.23a.59.59,0,0,0,.13.39H42.25a.59.59,0,0,0,.13-.39V2a.59.59,0,0,0-.13-.39h1.12a.59.59,0,0,0-.13.39V5.14Z" transform="translate(0 -1.19)"/><path d="M49.44,6.51h2a1.31,1.31,0,0,0,.38-.06,1.78,1.78,0,0,0,.36-.14v.91H50.1a1.45,1.45,0,0,0-.35,0,.89.89,0,0,0-.31.14Z" transform="translate(0 -1.19)"/><path d="M56.6,2.72A2.75,2.75,0,0,0,56,2.35a1.79,1.79,0,0,0-.72-.15,1.12,1.12,0,0,0-.81.31,1.09,1.09,0,0,0-.31.81.71.71,0,0,0,.24.54,3.9,3.9,0,0,0,.6.45l.78.44a5.21,5.21,0,0,1,.77.56,2.82,2.82,0,0,1,.61.78,2.32,2.32,0,0,1,.24,1.1,2.51,2.51,0,0,1-.21,1,2.39,2.39,0,0,1-.56.83,2.77,2.77,0,0,1-.85.55,3,3,0,0,1-1.09.19,1.55,1.55,0,0,1-.31,0l-.31-.07-.32-.07a1.63,1.63,0,0,0-.31,0,.34.34,0,0,0-.17.05.91.91,0,0,0-.16.11V8.32a2.41,2.41,0,0,0,.65.46,1.85,1.85,0,0,0,.78.17,2.45,2.45,0,0,0,.78-.12,1.69,1.69,0,0,0,.64-.33A1.41,1.41,0,0,0,56.36,8a1.68,1.68,0,0,0,.16-.77,1.5,1.5,0,0,0-.24-.88,2.14,2.14,0,0,0-.6-.6,6,6,0,0,0-.78-.47,6.47,6.47,0,0,1-.77-.45,2.41,2.41,0,0,1-.6-.59,1.49,1.49,0,0,1-.25-.87,2.27,2.27,0,0,1,.13-.75,1.84,1.84,0,0,1,.37-.6,2,2,0,0,1,.57-.4,2.06,2.06,0,0,1,.76-.14l.32,0,.36.05.33.06a.8.8,0,0,0,.21,0,.4.4,0,0,0,.27-.09Z" transform="translate(0 -1.19)"/><path d="M58.41,9.62a.6.6,0,0,0,.14-.39V2a.6.6,0,0,0-.14-.39h1.12A.59.59,0,0,0,59.4,2V8.86h2.44a1.9,1.9,0,0,0,.4,0,1.79,1.79,0,0,0,.37-.12v.93Z" transform="translate(0 -1.19)"/><path d="M64.36,9.23a.59.59,0,0,0,.13.39H63.37a.59.59,0,0,0,.13-.39V2a.59.59,0,0,0-.13-.39h1.12a.59.59,0,0,0-.13.39Z" transform="translate(0 -1.19)"/><path d="M67,9.23a.6.6,0,0,0,.14.39H66a.6.6,0,0,0,.14-.39v-8h0l4.77,6.25h0V2a.6.6,0,0,0-.14-.39h1.13a.6.6,0,0,0-.14.39V9.8h0L67,3.6l0,0Z" transform="translate(0 -1.19)"/><path d="M79.3,2.75a3.16,3.16,0,0,0-1-.35,5.19,5.19,0,0,0-1-.11,3.45,3.45,0,0,0-2.4,1,3.43,3.43,0,0,0-.72,1.06A3.09,3.09,0,0,0,74,5.62,3.25,3.25,0,0,0,74.23,7,3.34,3.34,0,0,0,75,8a3.66,3.66,0,0,0,1.13.68A3.93,3.93,0,0,0,77.49,9a4.24,4.24,0,0,0,.88-.1,6.82,6.82,0,0,0,.84-.27V6H77.26a1.08,1.08,0,0,0-.44.09V5.14a1.08,1.08,0,0,0,.44.09h2.8V8.71a2.9,2.9,0,0,0,0,.34,7.32,7.32,0,0,1-1.29.54,4.75,4.75,0,0,1-1.4.21,4.49,4.49,0,0,1-1.74-.33,4,4,0,0,1-1.36-.91,4.27,4.27,0,0,1-.89-1.37A4.5,4.5,0,0,1,73.1,5.5a3.65,3.65,0,0,1,.37-1.66,3.87,3.87,0,0,1,1-1.28,4.46,4.46,0,0,1,1.42-.83,4.87,4.87,0,0,1,1.66-.29l.37,0,.43.06.4.06.32,0a.7.7,0,0,0,.25-.05Z" transform="translate(0 -1.19)"/><path d="M82.46,9.23a.6.6,0,0,0,.14.39H81.48a.65.65,0,0,0,.13-.39V2a.65.65,0,0,0-.13-.39H82.6a.6.6,0,0,0-.14.39Z" transform="translate(0 -1.19)"/><path d="M85.06,9.23a.6.6,0,0,0,.14.39H84.07a.6.6,0,0,0,.14-.39v-8h0L89,7.44h0V2a.6.6,0,0,0-.14-.39H90a.6.6,0,0,0-.14.39V9.8h0L85.08,3.6l0,0Z" transform="translate(0 -1.19)"/><path d="M97.4,2.75a3,3,0,0,0-.94-.35,5.19,5.19,0,0,0-1-.11,3.25,3.25,0,0,0-1.32.27,3.3,3.3,0,0,0-1.08.72,3.26,3.26,0,0,0-.72,1.06,3.09,3.09,0,0,0-.27,1.28A3.26,3.26,0,0,0,92.34,7,3.19,3.19,0,0,0,93.09,8a3.66,3.66,0,0,0,1.13.68A3.91,3.91,0,0,0,95.59,9a4.33,4.33,0,0,0,.89-.1,6.18,6.18,0,0,0,.83-.27V6H95.37a1,1,0,0,0-.44.09V5.14a1,1,0,0,0,.44.09h2.8V8.71a2.9,2.9,0,0,0,0,.34,7.11,7.11,0,0,1-1.3.54,4.68,4.68,0,0,1-1.39.21,4.49,4.49,0,0,1-1.74-.33,4,4,0,0,1-1.36-.91,4.11,4.11,0,0,1-.89-1.37,4.5,4.5,0,0,1-.32-1.69,3.78,3.78,0,0,1,.36-1.66,4,4,0,0,1,1-1.28A4.46,4.46,0,0,1,94,1.73a4.87,4.87,0,0,1,1.66-.29l.36,0,.44.06.4.06.32,0a.6.6,0,0,0,.24-.05Z" transform="translate(0 -1.19)"/><path d="M1.45,22.85c.27.31.57.63.9,1a8.08,8.08,0,0,0,1,.92,5.75,5.75,0,0,0,1.17.68,3.13,3.13,0,0,0,1.28.27,1.6,1.6,0,0,0,.93-.31,1,1,0,0,0,.45-.87A1.34,1.34,0,0,0,7,23.72,3.07,3.07,0,0,0,6.28,23c-.29-.21-.6-.43-1-.65s-.71-.46-1.09-.72-.74-.53-1.1-.83a5.36,5.36,0,0,1-1-1.05,5.45,5.45,0,0,1-.68-1.34,5.33,5.33,0,0,1-.25-1.72,5.66,5.66,0,0,1,.46-2.39A4.51,4.51,0,0,1,3,12.67a5.45,5.45,0,0,1,1.91-1,9.14,9.14,0,0,1,2.41-.3,3.44,3.44,0,0,1,.77.09l.72.17.62.18a1.44,1.44,0,0,0,.42.09,2.65,2.65,0,0,0,.58-.06.94.94,0,0,0,.47-.27v6a5.71,5.71,0,0,0-.42-.64,4.81,4.81,0,0,0-.62-.66,3.21,3.21,0,0,0-.73-.51,1.52,1.52,0,0,0-.74-.21,1.74,1.74,0,0,0-1,.23.87.87,0,0,0-.31.75,1.08,1.08,0,0,0,.26.69,3.45,3.45,0,0,0,.68.6c.28.19.6.39,1,.59s.72.42,1.1.67a12.33,12.33,0,0,1,1.08.86,5.79,5.79,0,0,1,1,1.12,5.6,5.6,0,0,1,.68,1.48A6.72,6.72,0,0,1,13,24.49a6.09,6.09,0,0,1-.53,2.62A5.39,5.39,0,0,1,11,29,6.31,6.31,0,0,1,8.9,30.08a9,9,0,0,1-2.64.37,6,6,0,0,1-1.78-.27,5.23,5.23,0,0,0-1.57-.27,3.11,3.11,0,0,0-1.46.34Z" transform="translate(0 -1.19)"/><path d="M18.17,30a2.63,2.63,0,0,0,.38-.56,1.25,1.25,0,0,0,.16-.59V21.62l-5.46-8.78-.39-.55a2.18,2.18,0,0,0-.48-.48h7.38a1.32,1.32,0,0,0-.18.67,1.77,1.77,0,0,0,.27.77c.18.32.38.68.62,1.07l1.23,1.95,1.23-1.95c.24-.39.45-.75.63-1.07a1.77,1.77,0,0,0,.27-.77,1.32,1.32,0,0,0-.18-.67h7.22a2.83,2.83,0,0,0-.36.43c-.1.14-.22.29-.33.45l-5.69,8.93v7.27a1.25,1.25,0,0,0,.16.59A3.52,3.52,0,0,0,25,30Z" transform="translate(0 -1.19)"/><path d="M49.56,11.81a1.28,1.28,0,0,0-.43.56,2.07,2.07,0,0,0-.1.7,5.78,5.78,0,0,0,.07.89l2,14.11a4.79,4.79,0,0,0,.28,1.1,2,2,0,0,0,.74.87H45.06a1.16,1.16,0,0,0,.46-.59,2.45,2.45,0,0,0,.1-.74,9.54,9.54,0,0,0-.1-1.38c-.07-.48-.12-.94-.16-1.38l-.51-6.48H44.8l-4,11L37,19.47h0L36.41,26c-.06.44-.11.9-.17,1.38a11.14,11.14,0,0,0-.09,1.38,2.45,2.45,0,0,0,.1.74,1.16,1.16,0,0,0,.46.59H29.6a1.78,1.78,0,0,0,.71-.87,10.26,10.26,0,0,0,.31-1.1L32.51,14a4.81,4.81,0,0,0,.08-.89,2.07,2.07,0,0,0-.1-.7,1.31,1.31,0,0,0-.44-.56h6.58l2.2,7h.06l2.2-7Z" transform="translate(0 -1.19)"/><path d="M53.44,11.41a2.16,2.16,0,0,0,.72.43,2.65,2.65,0,0,0,.92.15,3.88,3.88,0,0,0,.82-.09l.88-.2a8.92,8.92,0,0,1,1.07-.2,9.45,9.45,0,0,1,1.37-.09,8.59,8.59,0,0,1,2.45.35,6.82,6.82,0,0,1,2.16,1.07,5.52,5.52,0,0,1,1.54,1.75A4.91,4.91,0,0,1,66,17a7.09,7.09,0,0,1-.12,1.31c-.08.42-.17.85-.29,1.28a5.25,5.25,0,0,1,1.06,1.74A7.14,7.14,0,0,1,67,24a6.38,6.38,0,0,1-.42,2.3,5.68,5.68,0,0,1-3.23,3.29,6.84,6.84,0,0,1-2.72.5H52.85a1.94,1.94,0,0,0,.46-.81,3,3,0,0,0,.13-.88ZM59,24.82A3.16,3.16,0,0,0,61,24.19a2.39,2.39,0,0,0,.77-2,2,2,0,0,0-.17-.79,2.38,2.38,0,0,0-.43-.68,3.07,3.07,0,0,0-.62-.51,2.5,2.5,0,0,0-.73-.32v-.1a1.66,1.66,0,0,0,.89-.67,2,2,0,0,0,.29-1.1A1.19,1.19,0,0,0,60.47,17a2.25,2.25,0,0,0-1.25-.37H59Z" transform="translate(0 -1.19)"/><path d="M77.62,11.41a8.72,8.72,0,0,1,3.66.76,9.34,9.34,0,0,1,2.93,2.08,9.71,9.71,0,0,1,0,13.36,9.16,9.16,0,0,1-2.93,2.07,9.08,9.08,0,0,1-7.32,0A9.27,9.27,0,0,1,71,27.61a9.71,9.71,0,0,1,0-13.36A9.46,9.46,0,0,1,74,12.17,8.79,8.79,0,0,1,77.62,11.41Zm-3.45,9.52a4.13,4.13,0,0,0,.27,1.51,3.37,3.37,0,0,0,.74,1.19,3.27,3.27,0,0,0,1.1.77,3.34,3.34,0,0,0,1.34.27A3.39,3.39,0,0,0,79,24.4a3.48,3.48,0,0,0,1.1-.77,3.69,3.69,0,0,0,.74-1.19,4.36,4.36,0,0,0,0-3,3.69,3.69,0,0,0-.74-1.19,3.32,3.32,0,0,0-1.1-.77,3.39,3.39,0,0,0-1.35-.27,3.34,3.34,0,0,0-1.34.27,3.13,3.13,0,0,0-1.1.77,3.37,3.37,0,0,0-.74,1.19A4.1,4.1,0,0,0,74.17,20.93Z" transform="translate(0 -1.19)"/><path d="M94.78,25H96.4c.39,0,.8,0,1.22-.06a2.92,2.92,0,0,0,1.16-.35V30H88.41a2.05,2.05,0,0,0,.46-.81,3.35,3.35,0,0,0,.13-.88V13.5a3.41,3.41,0,0,0-.13-.88,2.05,2.05,0,0,0-.46-.81h7a2.05,2.05,0,0,0-.46.81,3.41,3.41,0,0,0-.13.88Z" transform="translate(0 -1.19)"/><polygon class="a" points="34.78 40.6 34.32 38.46 32.93 38.46 32.49 40.6 34.78 40.6"/><path d="M4.79,40.34l1,.67c.33.2.62.41.89.61a3.13,3.13,0,0,1,.63.63,1.23,1.23,0,0,1,.24.74.92.92,0,0,1-.42.81,1.52,1.52,0,0,1-.87.28,2.89,2.89,0,0,1-1.19-.25A5,5,0,0,1,4,43.2a7,7,0,0,1-1-.86c-.31-.31-.59-.62-.84-.9v6.89A3,3,0,0,1,3.55,48,4.87,4.87,0,0,1,5,48.27a5.38,5.38,0,0,0,1.66.25,8.44,8.44,0,0,0,2.45-.34,5.63,5.63,0,0,0,2-1,4.89,4.89,0,0,0,1.34-1.73A5.64,5.64,0,0,0,13,43a6.25,6.25,0,0,0-.24-1.81,5.31,5.31,0,0,0-.63-1.38,1.25,1.25,0,0,0-.09-.12H3.88C4.18,39.89,4.48,40.13,4.79,40.34Z" transform="translate(0 -1.19)"/><path d="M14.85,46.57a3,3,0,0,1-.12.82,1.77,1.77,0,0,1-.43.75H24V43.08a2.68,2.68,0,0,1-1.07.33,11.43,11.43,0,0,1-1.15.05h-1.5V39.65H14.85Z" transform="translate(0 -1.19)"/><path d="M34.78,41.79H32.49l.44-2.14H27.76L25.5,45.78c-.17.46-.34.89-.51,1.3a3.1,3.1,0,0,1-.73,1.06h6.92V48a.61.61,0,0,1-.2-.34,1.7,1.7,0,0,1-.06-.42,3.25,3.25,0,0,1,.1-.8,2.8,2.8,0,0,1,.3-.75H36l.24.75a2.81,2.81,0,0,1,.11.77,3.87,3.87,0,0,1,0,.48,1.44,1.44,0,0,1-.13.43h6.87a4.92,4.92,0,0,1-.54-.64,4.14,4.14,0,0,1-.44-.84l-2.56-7h-5.2Z" transform="translate(0 -1.19)"/><path d="M46.28,40.34c.35.24.69.46,1,.67s.62.41.88.61a3.13,3.13,0,0,1,.63.63,1.23,1.23,0,0,1,.24.74.92.92,0,0,1-.42.81,1.52,1.52,0,0,1-.87.28,2.89,2.89,0,0,1-1.19-.25,5.22,5.22,0,0,1-1.09-.63,7,7,0,0,1-1-.86c-.3-.31-.58-.62-.84-.9v6.89A3,3,0,0,1,45,48a4.82,4.82,0,0,1,1.47.25,5.38,5.38,0,0,0,1.66.25,8.44,8.44,0,0,0,2.45-.34,5.77,5.77,0,0,0,2-1A4.86,4.86,0,0,0,54,45.41,5.64,5.64,0,0,0,54.44,43a6.25,6.25,0,0,0-.24-1.81,5.31,5.31,0,0,0-.63-1.38,1.25,1.25,0,0,0-.09-.12H45.37C45.67,39.89,46,40.13,46.28,40.34Z" transform="translate(0 -1.19)"/><path d="M56.32,46.57a3,3,0,0,1-.12.82,1.77,1.77,0,0,1-.43.75h6.49a1.77,1.77,0,0,1-.43-.75,3,3,0,0,1-.12-.82V41.72h2.53v4.85a3,3,0,0,1-.12.82,1.77,1.77,0,0,1-.43.75h6.49a1.77,1.77,0,0,1-.43-.75,3,3,0,0,1-.12-.82V39.65H56.32Z" transform="translate(0 -1.19)"/><path d="M72.48,46.57a3,3,0,0,1-.12.82,1.75,1.75,0,0,1-.42.75H82.48V43a4,4,0,0,1-1.24.36,10.4,10.4,0,0,1-1.34.09H77.64v-2h1.21a5.65,5.65,0,0,1,.93.07,3.6,3.6,0,0,1,.93.26V39.65H72.48Z" transform="translate(0 -1.19)"/><path d="M85,46.57a3,3,0,0,1-.12.82,1.77,1.77,0,0,1-.43.75H91a1.77,1.77,0,0,1-.43-.75,3,3,0,0,1-.12-.82V43.18a4.18,4.18,0,0,1,1.31.5,5.36,5.36,0,0,1,1.09.82,3.72,3.72,0,0,1,.72,1,2.39,2.39,0,0,1,.27,1.07,3,3,0,0,1-.12.82,1.88,1.88,0,0,1-.43.75h6.49a1.77,1.77,0,0,1-.43-.75,3,3,0,0,1-.12-.82,7.67,7.67,0,0,0-.26-2,8.08,8.08,0,0,0-.72-1.73,6.43,6.43,0,0,0-1.07-1.39,5.31,5.31,0,0,0-1.34-1,6.25,6.25,0,0,0,.63-.83H85Z" transform="translate(0 -1.19)"/><path d="M8.18,37.93a11.82,11.82,0,0,0-1-.63,8.88,8.88,0,0,1-.9-.55,3.21,3.21,0,0,1-.63-.56,1,1,0,0,1-.24-.64.84.84,0,0,1,.29-.7,1.65,1.65,0,0,1,1-.21,1.44,1.44,0,0,1,.69.19,3.49,3.49,0,0,1,.68.48,3.78,3.78,0,0,1,.58.62c.16.22.29.42.39.59V31a1,1,0,0,1-.44.25,2.35,2.35,0,0,1-.54.06,1.23,1.23,0,0,1-.39-.09L7,31l-.68-.17a3,3,0,0,0-.72-.09,8.32,8.32,0,0,0-2.24.29A4.89,4.89,0,0,0,1.61,32,4.3,4.3,0,0,0,.43,33.51,5.25,5.25,0,0,0,0,35.74a4.83,4.83,0,0,0,.24,1.59,5.12,5.12,0,0,0,.63,1.26,4.63,4.63,0,0,0,.9,1l.11.09H10a5.09,5.09,0,0,0-.79-.92A10.85,10.85,0,0,0,8.18,37.93Z" transform="translate(0 -1.19)"/><path d="M18.36,31.91a1.77,1.77,0,0,1,.43-.75H12.3a1.77,1.77,0,0,1,.43.75,3,3,0,0,1,.12.82v6.92h5.39V32.73A3,3,0,0,1,18.36,31.91Z" transform="translate(0 -1.19)"/><path d="M27.94,31.16a2.25,2.25,0,0,1,.37.31.64.64,0,0,1,.15.45,2.06,2.06,0,0,1-.08.54c-.06.21-.11.38-.16.51l-2.46,6.68h5.17l.63-3.08h.1l.66,3.08h5.2l-3.09-8.49Z" transform="translate(0 -1.19)"/><path d="M49.67,37.93a11.82,11.82,0,0,0-1-.63,10.15,10.15,0,0,1-.9-.55,3.21,3.21,0,0,1-.63-.56,1,1,0,0,1-.24-.64.84.84,0,0,1,.29-.7,1.65,1.65,0,0,1,.95-.21,1.38,1.38,0,0,1,.69.19,3.89,3.89,0,0,1,.69.48,4.19,4.19,0,0,1,.57.62,5.38,5.38,0,0,1,.39.59V31a1,1,0,0,1-.44.25,2.35,2.35,0,0,1-.54.06,1.29,1.29,0,0,1-.39-.09L48.52,31l-.68-.17a3,3,0,0,0-.72-.09,8.32,8.32,0,0,0-2.24.29A5,5,0,0,0,43.1,32a4.3,4.3,0,0,0-1.18,1.56,5.25,5.25,0,0,0-.43,2.23,4.83,4.83,0,0,0,.24,1.59,5.12,5.12,0,0,0,.63,1.26,4.63,4.63,0,0,0,.9,1l.11.09h8.11a5.09,5.09,0,0,0-.79-.92A10.85,10.85,0,0,0,49.67,37.93Z" transform="translate(0 -1.19)"/><path d="M67.75,31.91a1.77,1.77,0,0,1,.43-.75H61.69a1.77,1.77,0,0,1,.43.75,3,3,0,0,1,.12.82v4.89H59.71V32.73a3,3,0,0,1,.12-.82,1.77,1.77,0,0,1,.43-.75H53.77a1.77,1.77,0,0,1,.43.75,3,3,0,0,1,.12.82v6.92H67.63V32.73A3,3,0,0,1,67.75,31.91Z" transform="translate(0 -1.19)"/><path d="M77.78,37.55a5.65,5.65,0,0,1-.93.07H75.64V35.83H77.9a8.92,8.92,0,0,1,1.34.1,4,4,0,0,1,1.24.36V31.16H69.94a1.75,1.75,0,0,1,.42.75,3,3,0,0,1,.12.82v6.92h8.23V37.29A4.62,4.62,0,0,1,77.78,37.55Z" transform="translate(0 -1.19)"/><path d="M95.29,36.76a6,6,0,0,0-.52-2.57,5.5,5.5,0,0,0-1.43-1.89,6.07,6.07,0,0,0-2.11-1.14,8.41,8.41,0,0,0-2.59-.39,8.7,8.7,0,0,0-1.31.09c-.4.05-.76.12-1.09.19l-.91.19a3.68,3.68,0,0,1-.8.08,2.3,2.3,0,0,1-.85-.14,2,2,0,0,1-.67-.41v8.88H94.42a7.1,7.1,0,0,0,.47-.91A5.11,5.11,0,0,0,95.29,36.76ZM90.24,38a1.5,1.5,0,0,1-.49.48,2.1,2.1,0,0,1-.66.25,3.37,3.37,0,0,1-.69.07V35.64a3.37,3.37,0,0,1,.69.07,2.1,2.1,0,0,1,.66.25,1.55,1.55,0,0,1,.49,2Z" transform="translate(0 -1.19)"/></svg>